<?xml version="1.0" encoding="UTF-8" standalone="no"?>
<!-- Created with Inkscape (http://www.inkscape.org/) -->

<svg
   xmlns:dc="http://purl.org/dc/elements/1.1/"
   xmlns:cc="http://creativecommons.org/ns#"
   xmlns:rdf="http://www.w3.org/1999/02/22-rdf-syntax-ns#"
   xmlns:svg="http://www.w3.org/2000/svg"
   xmlns="http://www.w3.org/2000/svg"
   xmlns:sodipodi="http://sodipodi.sourceforge.net/DTD/sodipodi-0.dtd"
   xmlns:inkscape="http://www.inkscape.org/namespaces/inkscape"
   width="210mm"
   height="297mm"
   viewBox="0 0 744.09448819 1052.3622047"
   id="svg2"
   version="1.1"
   inkscape:version="0.91 r13725"
   sodipodi:docname="cutting-sticker.svg">
  <defs
     id="defs4" />
  <sodipodi:namedview
     id="base"
     pagecolor="#ffffff"
     bordercolor="#666666"
     borderopacity="1.0"
     inkscape:pageopacity="0.0"
     inkscape:pageshadow="2"
     inkscape:zoom="0.49497475"
     inkscape:cx="110.951"
     inkscape:cy="539.02379"
     inkscape:document-units="px"
     inkscape:current-layer="layer1"
     showgrid="false"
     inkscape:window-width="1366"
     inkscape:window-height="716"
     inkscape:window-x="0"
     inkscape:window-y="24"
     inkscape:window-maximized="1" />
  <metadata
     id="metadata7">
    <rdf:RDF>
      <cc:Work
         rdf:about="">
        <dc:format>image/svg+xml</dc:format>
        <dc:type
           rdf:resource="http://purl.org/dc/dcmitype/StillImage" />
        <dc:title></dc:title>
      </cc:Work>
    </rdf:RDF>
  </metadata>
  <g
     inkscape:label="Layer 1"
     inkscape:groupmode="layer"
     id="layer1">
    <g
       id="cutting-sticker-hitam"
       transform="matrix(1.0067299,0,0,1,101.64591,185.52144)">
      <path
         style="fill:none;stroke:#000000;stroke-width:8.80882549;stroke-miterlimit:4;stroke-dasharray:none"
         d="m 148.91358,164.24514 c 0,9.47327 -7.67959,17.15286 -17.15288,17.15286 -9.47325,0 -17.15285,-7.67959 -17.15285,-17.15286 0,-9.47326 7.6796,-17.15286 17.15285,-17.15286 9.47329,0 17.15288,7.6796 17.15288,17.15286 z"
         id="path5969"
         inkscape:connector-curvature="0"
         inkscape:export-filename="/home/mdamt/rect4269.png"
         inkscape:export-xdpi="285.01001"
         inkscape:export-ydpi="285.01001" />
      <path
         style="fill:#aa0000;fill-opacity:1;stroke:#ff0000;stroke-width:7.16427326;stroke-linecap:round;stroke-linejoin:round;stroke-miterlimit:4;stroke-opacity:1"
         d="m 156.59896,146.82475 0.40261,0 0,36.81487 -0.40261,0 z"
         id="path5971"
         inkscape:connector-curvature="0"
         inkscape:export-xdpi="285.01001"
         inkscape:export-ydpi="285.01001" />
      <path
         d="m 198.85309,146.93359 -7.1841,0 0,13.52301 c 0.0939,2e-5 0.53997,2e-5 1.33823,0 0.79827,-0.047 1.54949,-0.0704 2.25386,-0.0704 0.75123,-0.047 1.76075,-0.11737 3.02857,-0.2113 1.31476,-0.14083 2.32428,-0.2817 3.02856,-0.42259 0.75132,-0.18779 1.59643,-0.46952 2.53563,-0.84519 0.98596,-0.37562 1.7138,-0.82169 2.18335,-1.33822 1.22078,-1.22079 1.83126,-2.72335 1.83126,-4.50767 0,-3.00507 -1.69042,-4.90674 -5.07117,-5.70501 -1.12688,-0.2817 -2.44164,-0.42256 -3.94419,-0.4226 m 0.49303,19.01673 -7.67713,0.4226 0,14.15689 6.90243,0 c 3.05203,1e-5 5.18844,-0.14085 6.40931,-0.42258 1.26772,-0.28173 2.34775,-0.58694 3.23991,-0.91563 0.89206,-0.37563 1.59643,-0.79822 2.11293,-1.26778 1.31476,-1.1269 1.97209,-2.5825 1.97209,-4.36681 0,-2.34773 -1.17392,-4.20244 -3.52158,-5.56415 -2.30081,-1.36167 -5.44683,-2.04252 -9.43796,-2.04254 m -16.34031,-26.34169 17.60812,0 c 4.60152,4e-5 8.17015,0.7748 10.70569,2.32427 2.48859,1.5026 4.15544,3.19297 5.00075,5.07112 0.79817,1.83129 1.17383,3.52166 1.12688,5.07113 0,1.54955 -0.4226,3.14601 -1.26781,4.7894 -0.79826,1.5965 -1.85473,2.93471 -3.1694,4.01464 3.80326,1.54954 6.29185,4.34335 7.46578,8.38145 0.32862,1.2678 0.49302,2.5121 0.49302,3.73291 0,1.17389 -0.14084,2.34777 -0.42261,3.52162 -0.28176,1.17388 -0.91562,2.5121 -1.90167,4.01464 -0.9391,1.45561 -2.15988,2.77035 -3.66243,3.94422 -1.50263,1.12691 -3.61557,2.08949 -6.33889,2.88773 -2.67647,0.75127 -5.75207,1.12691 -9.22671,1.12691 l -16.41072,0 0,-48.88004"
         style="font-style:normal;font-weight:bold;font-size:75.31466675px;line-height:125%;font-family:Sans;-inkscape-font-specification:'Sans Bold';letter-spacing:0px;word-spacing:0px;fill:#000000;fill-opacity:1;stroke:none"
         id="path5973"
         inkscape:connector-curvature="0" />
      <path
         d="m 241.10576,156.08979 c 4.41374,-1.50252 8.47539,-2.2538 12.18485,-2.25382 3.75631,2e-5 6.69099,0.32871 8.80401,0.98604 2.15988,0.6574 3.77979,1.5965 4.85982,2.8173 2.01904,2.20691 3.02856,5.07115 3.02856,8.59274 l 0,22.25662 -6.33889,0 -0.91563,-2.25384 c -3.09907,1.97211 -6.57371,2.95817 -10.42401,2.95817 -5.35285,0 -9.39093,-1.52604 -12.11434,-4.57811 -1.4556,-1.69037 -2.18336,-3.47465 -2.18336,-5.35286 0,-1.73731 0.23474,-3.19291 0.70428,-4.3668 0.46956,-1.22082 1.24435,-2.20686 2.32429,-2.95816 1.07994,-0.79821 2.23039,-1.4321 3.45116,-1.90167 1.22088,-0.51649 2.81731,-0.89213 4.78941,-1.12692 3.19296,-0.37562 7.27799,-0.56344 12.25527,-0.56345 l 0,-0.49304 c -1e-4,-3.099 -1.26782,-5.0711 -3.80336,-5.91631 -1.17392,-0.37562 -2.91129,-0.56344 -5.212,-0.56347 -2.30081,3e-5 -5.4703,0.49307 -9.50839,1.47908 l -1.33823,0.4226 -1.76075,-6.83193 1.19731,-0.35217 m 20.42542,23.59484 0,-4.93027 -0.84521,0 c -5.16506,2e-5 -8.75716,0.21132 -10.7762,0.63389 -1.9721,0.42261 -2.95815,1.45562 -2.95815,3.09903 0,1.07997 0.63386,1.92516 1.90168,2.53556 1.31476,0.61042 3.21644,0.91563 5.70503,0.91563 2.48859,0 4.81288,-0.75128 6.97285,-2.25384"
         style="font-style:normal;font-weight:bold;font-size:75.31466675px;line-height:125%;font-family:Sans;-inkscape-font-specification:'Sans Bold';letter-spacing:0px;word-spacing:0px;fill:#000000;fill-opacity:1;stroke:none"
         id="path5975"
         inkscape:connector-curvature="0" />
      <path
         d="m 274.43273,154.54028 5.91629,0 1.12689,2.32427 c 4.41374,-2.01903 8.40497,-3.02856 11.9735,-3.02858 5.82239,2e-5 9.5788,2.15995 11.26922,6.47976 0.84512,2.15995 1.2912,4.85986 1.33815,8.09972 l 0,20.07322 -8.52225,0 0,-19.93235 c -9e-5,-2.39467 -0.51659,-4.10853 -1.54949,-5.14156 -1.08003,-1.1269 -2.79392,-1.69035 -5.14159,-1.69038 -2.30081,3e-5 -4.9538,0.63392 -7.95889,1.90167 l 0,24.86262 -8.45183,0 0,-33.94839"
         style="font-style:normal;font-weight:bold;font-size:75.31466675px;line-height:125%;font-family:Sans;-inkscape-font-specification:'Sans Bold';letter-spacing:0px;word-spacing:0px;fill:#000000;fill-opacity:1;stroke:none"
         id="path5977"
         inkscape:connector-curvature="0" />
      <path
         d="m 318.12978,168.13372 14.64997,-14.29775 10.14225,0 -16.7629,15.56554 17.32634,19.08716 -10.42401,0 -14.93165,-16.90376 0,16.90376 -8.45191,0 0,-48.88005 8.45191,0 0,28.5251"
         style="font-style:normal;font-weight:bold;font-size:75.31466675px;line-height:125%;font-family:Sans;-inkscape-font-specification:'Sans Bold';letter-spacing:0px;word-spacing:0px;fill:#000000;fill-opacity:1;stroke:none"
         id="path5979"
         inkscape:connector-curvature="0" />
      <path
         d="m 368.0704,142.8563 c 4.50763,4e-5 8.56918,0.9861 12.18476,2.95816 3.61547,1.92519 6.47973,4.76595 8.59275,8.52231 2.15988,3.75642 3.23982,8.07627 3.23992,12.95955 -10e-5,7.5128 -2.30091,13.64041 -6.90243,18.38284 -4.55468,4.6955 -10.3536,7.04323 -17.39677,7.04323 -6.245,0 -11.7153,-2.04253 -16.41072,-6.12761 -2.25387,-1.97209 -4.06165,-4.57809 -5.42326,-7.81799 -1.36171,-3.23987 -2.04261,-6.8554 -2.04261,-10.84658 0,-7.51275 2.27734,-13.56992 6.83201,-18.17154 4.60152,-4.60154 10.37697,-6.90233 17.32635,-6.90237 m 5.14149,8.9449 c -1.78431,-0.65732 -3.61548,-0.98601 -5.49368,-0.98605 -1.83126,4e-5 -3.61557,0.32873 -5.35284,0.98605 -1.73737,0.65741 -3.33381,1.61999 -4.78941,2.88773 -1.45559,1.26782 -2.62952,2.98167 -3.52167,5.14156 -0.84512,2.15996 -1.26773,4.62509 -1.26773,7.39539 0,5.30593 1.47907,9.57882 4.43722,12.81869 2.95814,3.19295 6.64413,4.78941 11.05787,4.7894 3.80336,1e-5 7.16063,-1.31472 10.07183,-3.94421 1.4556,-1.31472 2.62943,-3.09901 3.52159,-5.35285 0.89215,-2.25382 1.33823,-4.81286 1.33823,-7.67713 0,-2.91118 -0.46955,-5.4937 -1.40865,-7.74756 -0.89216,-2.2538 -2.11303,-4.03809 -3.66242,-5.35286 -1.50265,-1.31469 -3.14603,-2.30075 -4.93034,-2.95816"
         style="font-style:normal;font-weight:bold;font-size:75.31466675px;line-height:125%;font-family:Sans;-inkscape-font-specification:'Sans Bold';letter-spacing:0px;word-spacing:0px;fill:#000000;fill-opacity:1;stroke:none"
         id="path5981"
         inkscape:connector-curvature="0" />
      <path
         d="m 395.35989,154.54028 5.91638,0 1.12688,2.32427 c 4.41375,-2.01903 8.40487,-3.02856 11.97352,-3.02858 5.8224,2e-5 9.57879,2.15995 11.2691,6.47976 0.84524,2.15995 1.29129,4.85986 1.33824,8.09972 l 0,20.07322 -8.52232,0 0,-19.93235 c 0,-2.39467 -0.51649,-4.10853 -1.54951,-5.14156 -1.07993,-1.1269 -2.79381,-1.69035 -5.14149,-1.69038 -2.30079,3e-5 -4.95379,0.63392 -7.95888,1.90167 l 0,24.86262 -8.45192,0 0,-33.94839"
         style="font-style:normal;font-weight:bold;font-size:75.31466675px;line-height:125%;font-family:Sans;-inkscape-font-specification:'Sans Bold';letter-spacing:0px;word-spacing:0px;fill:#000000;fill-opacity:1;stroke:none"
         id="path5983"
         inkscape:connector-curvature="0" />
      <rect
         style="fill:#000000;fill-opacity:1;stroke:none"
         id="rect5985"
         width="9.3648043"
         height="49.155605"
         x="224.85625"
         y="139.57278"
         ry="1.117173" />
    </g>
    <g
       id="cutting-sticker-putih"
       transform="matrix(1.0066808,0,0,1,15.595722,166.67517)">
      <path
         inkscape:connector-curvature="0"
         id="path4241"
         d="m 217.25391,263.55859 c -11.85358,0 -21.5586,9.70501 -21.5586,21.5586 0,11.85359 9.70502,21.55664 21.5586,21.55664 11.8536,0 21.55664,-9.70306 21.55664,-21.55664 0,-11.85358 -9.70304,-21.5586 -21.55664,-21.5586 z m 0,8.81055 c 7.09297,0 12.74804,5.65511 12.74804,12.74805 0,7.09295 -5.65507,12.74804 -12.74804,12.74804 -7.09293,0 -12.75,-5.65509 -12.75,-12.74804 0,-7.09294 5.65707,-12.74805 12.75,-12.74805 z"
         style="color:#000000;font-style:normal;font-variant:normal;font-weight:normal;font-stretch:normal;font-size:medium;line-height:normal;font-family:sans-serif;text-indent:0;text-align:start;text-decoration:none;text-decoration-line:none;text-decoration-style:solid;text-decoration-color:#000000;letter-spacing:normal;word-spacing:normal;text-transform:none;direction:ltr;block-progression:tb;writing-mode:lr-tb;baseline-shift:baseline;text-anchor:start;white-space:normal;clip-rule:nonzero;display:inline;overflow:visible;visibility:visible;opacity:1;isolation:auto;mix-blend-mode:normal;color-interpolation:sRGB;color-interpolation-filters:linearRGB;solid-color:#000000;solid-opacity:1;fill:#e6e6e6;fill-opacity:1;fill-rule:nonzero;stroke:none;stroke-width:8.80882549;stroke-linecap:butt;stroke-linejoin:miter;stroke-miterlimit:4;stroke-dasharray:none;stroke-dashoffset:0;stroke-opacity:1;color-rendering:auto;image-rendering:auto;shape-rendering:auto;text-rendering:auto;enable-background:accumulate" />
      <path
         inkscape:export-ydpi="285.01001"
         inkscape:export-xdpi="285.01001"
         inkscape:connector-curvature="0"
         id="path4243"
         d="m 242.09153,267.69643 0.40261,0 0,36.81487 -0.40261,0 z"
         style="fill:#aa0000;fill-opacity:1;stroke:#ff0000;stroke-width:7.16427326;stroke-linecap:round;stroke-linejoin:round;stroke-miterlimit:4;stroke-opacity:1" />
      <path
         inkscape:connector-curvature="0"
         id="path4245"
         style="font-style:normal;font-weight:bold;font-size:75.31466675px;line-height:125%;font-family:Sans;-inkscape-font-specification:'Sans Bold';letter-spacing:0px;word-spacing:0px;fill:#cccccc;fill-opacity:1;stroke:none"
         d="m 284.34566,267.80527 -7.1841,0 0,13.52301 c 0.0939,2e-5 0.53997,2e-5 1.33823,0 0.79827,-0.047 1.54949,-0.0704 2.25386,-0.0704 0.75123,-0.047 1.76075,-0.11737 3.02857,-0.2113 1.31476,-0.14083 2.32428,-0.2817 3.02856,-0.42259 0.75132,-0.18779 1.59643,-0.46952 2.53563,-0.84519 0.98596,-0.37562 1.7138,-0.82169 2.18335,-1.33822 1.22078,-1.22079 1.83126,-2.72335 1.83126,-4.50767 0,-3.00507 -1.69042,-4.90674 -5.07117,-5.70501 -1.12688,-0.2817 -2.44164,-0.42256 -3.94419,-0.4226 m 0.49303,19.01673 -7.67713,0.4226 0,14.15689 6.90243,0 c 3.05203,10e-6 5.18844,-0.14085 6.40931,-0.42258 1.26772,-0.28173 2.34775,-0.58694 3.23991,-0.91563 0.89206,-0.37563 1.59643,-0.79822 2.11293,-1.26778 1.31476,-1.1269 1.97209,-2.5825 1.97209,-4.36681 0,-2.34773 -1.17392,-4.20244 -3.52158,-5.56415 -2.30081,-1.36167 -5.44683,-2.04252 -9.43796,-2.04254 m -16.34031,-26.34169 17.60812,0 c 4.60152,4e-5 8.17015,0.7748 10.70569,2.32427 2.48859,1.5026 4.15544,3.19297 5.00075,5.07112 0.79817,1.83129 1.17383,3.52166 1.12688,5.07113 0,1.54955 -0.4226,3.14601 -1.26781,4.7894 -0.79826,1.5965 -1.85473,2.93471 -3.1694,4.01464 3.80326,1.54954 6.29185,4.34335 7.46578,8.38145 0.32862,1.2678 0.49302,2.5121 0.49302,3.73291 0,1.17389 -0.14084,2.34777 -0.42261,3.52162 -0.28176,1.17388 -0.91562,2.5121 -1.90167,4.01464 -0.9391,1.45561 -2.15988,2.77035 -3.66243,3.94422 -1.50263,1.12691 -3.61557,2.08949 -6.33889,2.88773 -2.67647,0.75127 -5.75207,1.12691 -9.22671,1.12691 l -16.41072,0 0,-48.88004" />
      <path
         inkscape:connector-curvature="0"
         id="path4247"
         style="font-style:normal;font-weight:bold;font-size:75.31466675px;line-height:125%;font-family:Sans;-inkscape-font-specification:'Sans Bold';letter-spacing:0px;word-spacing:0px;fill:#cccccc;fill-opacity:1;stroke:none"
         d="m 326.59833,276.96147 c 4.41374,-1.50252 8.47539,-2.2538 12.18485,-2.25382 3.75631,2e-5 6.69099,0.32871 8.80401,0.98604 2.15988,0.6574 3.77979,1.5965 4.85982,2.8173 2.01904,2.20691 3.02856,5.07115 3.02856,8.59274 l 0,22.25662 -6.33889,0 -0.91563,-2.25384 c -3.09907,1.97211 -6.57371,2.95817 -10.42401,2.95817 -5.35285,0 -9.39093,-1.52604 -12.11434,-4.57811 -1.4556,-1.69037 -2.18336,-3.47465 -2.18336,-5.35286 0,-1.73731 0.23474,-3.19291 0.70428,-4.3668 0.46956,-1.22082 1.24435,-2.20686 2.32429,-2.95816 1.07994,-0.79821 2.23039,-1.4321 3.45116,-1.90167 1.22088,-0.51649 2.81731,-0.89213 4.78941,-1.12692 3.19296,-0.37562 7.27799,-0.56344 12.25527,-0.56345 l 0,-0.49304 c -1e-4,-3.099 -1.26782,-5.0711 -3.80336,-5.91631 -1.17392,-0.37562 -2.91129,-0.56344 -5.212,-0.56347 -2.30081,3e-5 -5.4703,0.49307 -9.50839,1.47908 l -1.33823,0.4226 -1.76075,-6.83193 1.19731,-0.35217 m 20.42542,23.59484 0,-4.93027 -0.84521,0 c -5.16506,2e-5 -8.75716,0.21132 -10.7762,0.63389 -1.9721,0.42261 -2.95815,1.45562 -2.95815,3.09903 0,1.07997 0.63386,1.92516 1.90168,2.53556 1.31476,0.61042 3.21644,0.91563 5.70503,0.91563 2.48859,0 4.81288,-0.75128 6.97285,-2.25384" />
      <path
         inkscape:connector-curvature="0"
         id="path4249"
         style="font-style:normal;font-weight:bold;font-size:75.31466675px;line-height:125%;font-family:Sans;-inkscape-font-specification:'Sans Bold';letter-spacing:0px;word-spacing:0px;fill:#cccccc;fill-opacity:1;stroke:none"
         d="m 359.9253,275.41196 5.91629,0 1.12689,2.32427 c 4.41374,-2.01903 8.40497,-3.02856 11.9735,-3.02858 5.82239,2e-5 9.5788,2.15995 11.26922,6.47976 0.84512,2.15995 1.2912,4.85986 1.33815,8.09972 l 0,20.07322 -8.52225,0 0,-19.93235 c -9e-5,-2.39467 -0.51659,-4.10853 -1.54949,-5.14156 -1.08003,-1.1269 -2.79392,-1.69035 -5.14159,-1.69038 -2.30081,3e-5 -4.9538,0.63392 -7.95889,1.90167 l 0,24.86262 -8.45183,0 0,-33.94839" />
      <path
         inkscape:connector-curvature="0"
         id="path4251"
         style="font-style:normal;font-weight:bold;font-size:75.31466675px;line-height:125%;font-family:Sans;-inkscape-font-specification:'Sans Bold';letter-spacing:0px;word-spacing:0px;fill:#cccccc;fill-opacity:1;stroke:none"
         d="m 403.62235,289.0054 14.64997,-14.29775 10.14225,0 -16.7629,15.56554 17.32634,19.08716 -10.42401,0 -14.93165,-16.90376 0,16.90376 -8.45191,0 0,-48.88005 8.45191,0 0,28.5251" />
      <path
         inkscape:connector-curvature="0"
         id="path4253"
         style="font-style:normal;font-weight:bold;font-size:75.31466675px;line-height:125%;font-family:Sans;-inkscape-font-specification:'Sans Bold';letter-spacing:0px;word-spacing:0px;fill:#cccccc;fill-opacity:1;stroke:none"
         d="m 453.56297,263.72798 c 4.50763,4e-5 8.56918,0.9861 12.18476,2.95816 3.61547,1.92519 6.47973,4.76595 8.59275,8.52231 2.15988,3.75642 3.23982,8.07627 3.23992,12.95955 -10e-5,7.5128 -2.30091,13.64041 -6.90243,18.38284 -4.55468,4.6955 -10.3536,7.04323 -17.39677,7.04323 -6.245,0 -11.7153,-2.04253 -16.41072,-6.12761 -2.25387,-1.97209 -4.06165,-4.57809 -5.42326,-7.81799 -1.36171,-3.23987 -2.04261,-6.8554 -2.04261,-10.84658 0,-7.51275 2.27734,-13.56992 6.83201,-18.17154 4.60152,-4.60154 10.37697,-6.90233 17.32635,-6.90237 m 5.14149,8.9449 c -1.78431,-0.65732 -3.61548,-0.98601 -5.49368,-0.98605 -1.83126,4e-5 -3.61557,0.32873 -5.35284,0.98605 -1.73737,0.65741 -3.33381,1.61999 -4.78941,2.88773 -1.45559,1.26782 -2.62952,2.98167 -3.52167,5.14156 -0.84512,2.15996 -1.26773,4.62509 -1.26773,7.39539 0,5.30593 1.47907,9.57882 4.43722,12.81869 2.95814,3.19295 6.64413,4.78941 11.05787,4.7894 3.80336,1e-5 7.16063,-1.31472 10.07183,-3.94421 1.4556,-1.31472 2.62943,-3.09901 3.52159,-5.35285 0.89215,-2.25382 1.33823,-4.81286 1.33823,-7.67713 0,-2.91118 -0.46955,-5.4937 -1.40865,-7.74756 -0.89216,-2.2538 -2.11303,-4.03809 -3.66242,-5.35286 -1.50265,-1.31469 -3.14603,-2.30075 -4.93034,-2.95816" />
      <path
         inkscape:connector-curvature="0"
         id="path4255"
         style="font-style:normal;font-weight:bold;font-size:75.31466675px;line-height:125%;font-family:Sans;-inkscape-font-specification:'Sans Bold';letter-spacing:0px;word-spacing:0px;fill:#cccccc;fill-opacity:1;stroke:none"
         d="m 480.85246,275.41196 5.91638,0 1.12688,2.32427 c 4.41375,-2.01903 8.40487,-3.02856 11.97352,-3.02858 5.8224,2e-5 9.57879,2.15995 11.2691,6.47976 0.84524,2.15995 1.29129,4.85986 1.33824,8.09972 l 0,20.07322 -8.52232,0 0,-19.93235 c 0,-2.39467 -0.51649,-4.10853 -1.54951,-5.14156 -1.07993,-1.1269 -2.79381,-1.69035 -5.14149,-1.69038 -2.30079,3e-5 -4.95379,0.63392 -7.95888,1.90167 l 0,24.86262 -8.45192,0 0,-33.94839" />
      <rect
         ry="1.117173"
         y="260.44446"
         x="310.34882"
         height="49.155605"
         width="9.3648043"
         id="rect4257"
         style="fill:#cccccc;fill-opacity:1;stroke:none" />
    </g>
    <text
       xml:space="preserve"
       style="font-style:normal;font-weight:normal;font-size:40px;line-height:125%;font-family:sans-serif;letter-spacing:0px;word-spacing:0px;fill:#000000;fill-opacity:1;stroke:none;stroke-width:1px;stroke-linecap:butt;stroke-linejoin:miter;stroke-opacity:1"
       x="306.57678"
       y="586.68188"
       id="text4281"
       sodipodi:linespacing="125%"><tspan
         sodipodi:role="line"
         id="tspan4283"
         x="306.57678"
         y="586.68188"
         style="font-size:20px">90mm x 15mm</tspan></text>
    <g
       id="g4351"
       transform="translate(-17.887651,0)">
      <path
         d="m 281.22397,88.467216 q 0,-3.90625 0.64453,-5.742187 0.64453,-1.835938 1.40625,-2.695313 1.66016,-1.875 4.84375,-1.894531 4.45312,0.01953 5.74219,3.925781 0.74218,2.246094 0.74218,5.976563 l 0,3.808594 -3.96484,0 0,-3.828125 q 0,-3.300782 -0.37109,-4.453125 -0.35157,-1.171875 -0.85938,-1.542969 -0.50781,-0.390625 -1.28906,-0.390625 -1.62109,0 -2.24609,1.542969 -0.60547,1.523437 -0.60547,4.824218 l 0,14.882814 q 0,3.90625 0.54687,5.46875 0.56641,1.54297 2.14844,1.54297 1.60156,0 2.12891,-1.5625 0.54687,-1.5625 0.54687,-5.46875 l 0,-3.808596 4.00391,0 0,3.769536 q 0,5.41015 -1.48438,7.96875 -1.46484,2.53906 -5.13672,2.53906 -3.67187,0 -5.23437,-2.61719 -1.5625,-2.63672 -1.5625,-7.92969 l 0,-14.316404 z"
         style="font-style:normal;font-variant:normal;font-weight:normal;font-stretch:ultra-condensed;font-size:medium;line-height:125%;font-family:Antonio;-inkscape-font-specification:'Antonio Ultra-Condensed';letter-spacing:0px;word-spacing:0px;fill:#000000;fill-opacity:1;stroke:none;stroke-width:1px;stroke-linecap:butt;stroke-linejoin:miter;stroke-opacity:1"
         id="path4309"
         inkscape:connector-curvature="0" />
      <path
         d="m 308.80209,83.623466 4.02344,0 0,29.296874 -4.02344,0 0,-2.98828 q -0.46875,1.48438 -1.62109,2.44141 -1.13281,0.9375 -3.06641,0.9375 -1.91406,0 -3.30078,-1.58203 -1.36719,-1.60157 -1.36719,-4.90235 l 0,-23.203124 4.00391,0 0,22.753904 q 0,3.45703 2.51953,3.45703 1.40625,0 2.10938,-0.97656 0.72265,-0.97656 0.72265,-2.57812 l 0,-22.656254 z"
         style="font-style:normal;font-variant:normal;font-weight:normal;font-stretch:ultra-condensed;font-size:medium;line-height:125%;font-family:Antonio;-inkscape-font-specification:'Antonio Ultra-Condensed';letter-spacing:0px;word-spacing:0px;fill:#000000;fill-opacity:1;stroke:none;stroke-width:1px;stroke-linecap:butt;stroke-linejoin:miter;stroke-opacity:1"
         id="path4311"
         inkscape:connector-curvature="0" />
      <path
         d="m 319.25131,78.545341 4.00391,0 0,5.3125 3.16406,0 0,2.96875 -3.16406,0 0,21.386719 q 0,1.13281 0.52734,1.42578 0.52735,0.27344 2.67578,0.27344 l 0,3.18359 -2.7539,0 q -2.77344,0 -3.61328,-0.99609 -0.83985,-1.01563 -0.83985,-3.53516 l 0,-21.738279 -2.67578,0 0,-2.96875 2.67578,0 0,-5.3125 z"
         style="font-style:normal;font-variant:normal;font-weight:normal;font-stretch:ultra-condensed;font-size:medium;line-height:125%;font-family:Antonio;-inkscape-font-specification:'Antonio Ultra-Condensed';letter-spacing:0px;word-spacing:0px;fill:#000000;fill-opacity:1;stroke:none;stroke-width:1px;stroke-linecap:butt;stroke-linejoin:miter;stroke-opacity:1"
         id="path4313"
         inkscape:connector-curvature="0" />
      <path
         d="m 331.20444,78.545341 4.0039,0 0,5.3125 3.16407,0 0,2.96875 -3.16407,0 0,21.386719 q 0,1.13281 0.52735,1.42578 0.52734,0.27344 2.67578,0.27344 l 0,3.18359 -2.75391,0 q -2.77344,0 -3.61328,-0.99609 -0.83984,-1.01563 -0.83984,-3.53516 l 0,-21.738279 -2.67578,0 0,-2.96875 2.67578,0 0,-5.3125 z"
         style="font-style:normal;font-variant:normal;font-weight:normal;font-stretch:ultra-condensed;font-size:medium;line-height:125%;font-family:Antonio;-inkscape-font-specification:'Antonio Ultra-Condensed';letter-spacing:0px;word-spacing:0px;fill:#000000;fill-opacity:1;stroke:none;stroke-width:1px;stroke-linecap:butt;stroke-linejoin:miter;stroke-opacity:1"
         id="path4315"
         inkscape:connector-curvature="0" />
      <path
         d="m 342.51303,83.623466 4.00391,0 0,29.296874 -4.00391,0 0,-29.296874 z m 0,-6.367187 4.02344,0 0,3.671875 -4.02344,0 0,-3.671875 z"
         style="font-style:normal;font-variant:normal;font-weight:normal;font-stretch:ultra-condensed;font-size:medium;line-height:125%;font-family:Antonio;-inkscape-font-specification:'Antonio Ultra-Condensed';letter-spacing:0px;word-spacing:0px;fill:#000000;fill-opacity:1;stroke:none;stroke-width:1px;stroke-linecap:butt;stroke-linejoin:miter;stroke-opacity:1"
         id="path4317"
         inkscape:connector-curvature="0" />
      <path
         d="m 356.30209,86.728935 q 0.39063,-1.425781 1.69922,-2.441406 1.32813,-1.035156 3.28125,-1.035156 1.97266,0 3.1836,1.601562 1.23046,1.582031 1.23046,4.707031 l 0,23.359374 -4.0039,0 0,-23.339842 q 0,-1.484375 -0.6836,-2.226563 -0.68359,-0.742187 -1.89453,-0.742187 -1.21093,0 -2.01172,0.839843 -0.80078,0.839844 -0.80078,2.519532 l 0,22.949217 -4.0039,0 0,-29.296874 4.0039,0 0,3.105469 z"
         style="font-style:normal;font-variant:normal;font-weight:normal;font-stretch:ultra-condensed;font-size:medium;line-height:125%;font-family:Antonio;-inkscape-font-specification:'Antonio Ultra-Condensed';letter-spacing:0px;word-spacing:0px;fill:#000000;fill-opacity:1;stroke:none;stroke-width:1px;stroke-linecap:butt;stroke-linejoin:miter;stroke-opacity:1"
         id="path4319"
         inkscape:connector-curvature="0" />
      <path
         d="m 376.22397,83.271904 q 2.7539,0 3.57422,2.5 l 0,-2.148438 4.0039,0 0,26.562504 q 0,5.23437 -3.94531,6.69922 -1.36719,0.50781 -3.16406,0.50781 -3.59375,0 -5.95703,-1.875 l 1.44531,-2.73438 q 2.12891,1.44532 4.51172,1.44532 1.58203,0 2.34375,-0.9961 0.76172,-0.99609 0.76172,-2.67578 l 0,-2.79297 q -0.52735,1.36719 -1.46485,1.89453 -0.97656,0.52735 -2.42187,0.52735 -2.92969,0 -4.02344,-2.48047 -1.09375,-2.48047 -1.09375,-6.66016 l 0,-8.398436 q 0,-9.375 5.42969,-9.375 z m 3.57422,8.789062 q 0,-2.851562 -0.52735,-4.140625 -0.50781,-1.308593 -1.8164,-1.308593 -1.28907,0 -1.81641,0.742187 -0.52734,0.742188 -0.68359,1.855469 -0.13672,1.113281 -0.13672,2.8125 l 0,9.121096 q 0,3.10547 0.5664,4.49219 0.56641,1.36718 2.12891,1.36718 0.82031,0 1.28906,-0.46875 0.97657,-0.95703 0.9961,-5.42968 l 0,-9.042974 z"
         style="font-style:normal;font-variant:normal;font-weight:normal;font-stretch:ultra-condensed;font-size:medium;line-height:125%;font-family:Antonio;-inkscape-font-specification:'Antonio Ultra-Condensed';letter-spacing:0px;word-spacing:0px;fill:#000000;fill-opacity:1;stroke:none;stroke-width:1px;stroke-linecap:butt;stroke-linejoin:miter;stroke-opacity:1"
         id="path4321"
         inkscape:connector-curvature="0" />
      <path
         d="m 398.80209,89.189873 q -0.35156,-1.230469 -0.35156,-2.949219 0,-3.730469 1.36719,-5.917969 1.38672,-2.207031 5.27344,-2.207031 5,0 5.89843,4.804687 0.39063,2.070313 0.39063,5.214844 l 0,2.03125 -3.86719,0 0,-2.304687 q 0,-3.28125 -0.33203,-4.414063 -0.33203,-1.132812 -0.82031,-1.503906 -0.48828,-0.371094 -1.26953,-0.371094 -1.46485,0 -2.10938,1.074219 -0.64453,1.074219 -0.64453,3.183594 0,2.109375 0.58594,3.085937 0.58593,0.976563 1.44531,1.875 0.85937,0.878906 0.95703,0.996094 l 2.34375,2.480469 q 4.21875,4.414062 4.21875,9.882812 0,4.45313 -1.38672,6.81641 -1.36719,2.34375 -5.23437,2.34375 -4.66797,0 -5.91797,-4.10157 -0.72266,-2.30468 -0.72266,-6.03515 0,-0.0977 0,-0.19531 l 0,-3.339849 3.92578,0 0,3.496099 q 0,3.76953 0.54688,5.2539 0.54687,1.46485 2.03125,1.46485 1.48437,0 2.05078,-0.6836 0.56641,-0.70312 0.64453,-2.1289 0.0977,-1.42579 0.0977,-3.20313 0,-3.57422 -3.14453,-6.71875 l -2.2461,-2.246094 q -3.00781,-3.085937 -3.73047,-5.683593 z"
         style="font-style:normal;font-variant:normal;font-weight:normal;font-stretch:ultra-condensed;font-size:medium;line-height:125%;font-family:Antonio;-inkscape-font-specification:'Antonio Ultra-Condensed';letter-spacing:0px;word-spacing:0px;fill:#000000;fill-opacity:1;stroke:none;stroke-width:1px;stroke-linecap:butt;stroke-linejoin:miter;stroke-opacity:1"
         id="path4323"
         inkscape:connector-curvature="0" />
      <path
         d="m 416.98569,78.545341 4.0039,0 0,5.3125 3.16407,0 0,2.96875 -3.16407,0 0,21.386719 q 0,1.13281 0.52735,1.42578 0.52734,0.27344 2.67578,0.27344 l 0,3.18359 -2.75391,0 q -2.77344,0 -3.61328,-0.99609 -0.83984,-1.01563 -0.83984,-3.53516 l 0,-21.738279 -2.67578,0 0,-2.96875 2.67578,0 0,-5.3125 z"
         style="font-style:normal;font-variant:normal;font-weight:normal;font-stretch:ultra-condensed;font-size:medium;line-height:125%;font-family:Antonio;-inkscape-font-specification:'Antonio Ultra-Condensed';letter-spacing:0px;word-spacing:0px;fill:#000000;fill-opacity:1;stroke:none;stroke-width:1px;stroke-linecap:butt;stroke-linejoin:miter;stroke-opacity:1"
         id="path4325"
         inkscape:connector-curvature="0" />
      <path
         d="m 428.29428,83.623466 4.00391,0 0,29.296874 -4.00391,0 0,-29.296874 z m 0,-6.367187 4.02344,0 0,3.671875 -4.02344,0 0,-3.671875 z"
         style="font-style:normal;font-variant:normal;font-weight:normal;font-stretch:ultra-condensed;font-size:medium;line-height:125%;font-family:Antonio;-inkscape-font-specification:'Antonio Ultra-Condensed';letter-spacing:0px;word-spacing:0px;fill:#000000;fill-opacity:1;stroke:none;stroke-width:1px;stroke-linecap:butt;stroke-linejoin:miter;stroke-opacity:1"
         id="path4327"
         inkscape:connector-curvature="0" />
      <path
         d="m 437.63022,93.232841 q 0,-3.808593 0.5664,-5.566406 0.58594,-1.777344 1.3086,-2.597656 1.58203,-1.796875 4.64844,-1.796875 3.0664,0 4.41406,1.523437 1.32812,1.523438 1.64062,4.53125 0.11719,1.289063 0.13672,3.066407 l 0,2.03125 -3.94531,0 0,-2.578125 q 0,-2.734375 -0.21484,-3.574219 -0.78125,-1.25 -1.875,-1.5625 -1.91407,0 -2.36329,1.914062 -0.29296,1.210938 -0.29296,3.339844 l 0,12.46094 q 0,3.00781 0.44921,4.21875 0.46875,1.1914 1.77735,1.1914 1.30859,0 1.91406,-0.83984 0.60547,-0.85937 0.60547,-4.49219 l 0,-2.83203 3.94531,0 0,1.89453 q 0,5.9961 -1.58203,7.85157 -1.58203,1.85546 -4.82422,1.85546 -5.11719,0 -5.99609,-5.46875 -0.3125,-2.01171 -0.3125,-4.76562 l 0,-9.804689 z"
         style="font-style:normal;font-variant:normal;font-weight:normal;font-stretch:ultra-condensed;font-size:medium;line-height:125%;font-family:Antonio;-inkscape-font-specification:'Antonio Ultra-Condensed';letter-spacing:0px;word-spacing:0px;fill:#000000;fill-opacity:1;stroke:none;stroke-width:1px;stroke-linecap:butt;stroke-linejoin:miter;stroke-opacity:1"
         id="path4329"
         inkscape:connector-curvature="0" />
      <path
         d="m 455.26694,78.174248 4.0039,0 0,19.375 5.76172,-13.925782 4.04297,0 -6.17187,14.472657 6.5039,14.824217 -4.12109,0 -6.01563,-14.257811 0,14.257811 -4.0039,0 0,-34.746092 z"
         style="font-style:normal;font-variant:normal;font-weight:normal;font-stretch:ultra-condensed;font-size:medium;line-height:125%;font-family:Antonio;-inkscape-font-specification:'Antonio Ultra-Condensed';letter-spacing:0px;word-spacing:0px;fill:#000000;fill-opacity:1;stroke:none;stroke-width:1px;stroke-linecap:butt;stroke-linejoin:miter;stroke-opacity:1"
         id="path4331"
         inkscape:connector-curvature="0" />
      <path
         d="m 471.69272,92.705498 q 0,-5.546875 1.99219,-7.714844 1.5625,-1.71875 4.60937,-1.71875 4.41406,0 5.54688,3.808594 0.625,2.148437 0.625,5.800781 l 0,5.527344 -8.75,0 0,5.839847 q 0,3.80859 0.60546,4.74609 0.60547,0.9375 1.91407,0.9375 1.30859,0 1.73828,-1.09375 0.44922,-1.09375 0.46875,-2.36328 0.0195,-1.28906 0.0195,-2.16797 l 0,-2.36328 3.92578,0 0,1.25 q 0,4.66797 -0.66406,6.54297 -0.64453,1.875 -1.97266,2.71484 -1.32812,0.82031 -3.30078,0.82031 -1.95312,0 -3.14453,-0.48828 -1.17188,-0.50781 -1.875,-1.32812 -0.68359,-0.82031 -1.21094,-2.61719 -0.52734,-1.79687 -0.52734,-5.78125 l 0,-10.351562 z m 8.76953,-0.742188 q 0,-3.125 -0.23438,-3.769531 -0.21484,-0.644531 -0.5664,-1.132813 -0.35156,-0.488281 -1.26953,-0.488281 -1.75782,0 -2.22657,1.484375 -0.46875,1.464844 -0.46875,4.042969 l 0,3.59375 4.76563,0 0,-3.730469 z"
         style="font-style:normal;font-variant:normal;font-weight:normal;font-stretch:ultra-condensed;font-size:medium;line-height:125%;font-family:Antonio;-inkscape-font-specification:'Antonio Ultra-Condensed';letter-spacing:0px;word-spacing:0px;fill:#000000;fill-opacity:1;stroke:none;stroke-width:1px;stroke-linecap:butt;stroke-linejoin:miter;stroke-opacity:1"
         id="path4333"
         inkscape:connector-curvature="0" />
      <path
         d="m 498.56772,83.271904 q 0.0781,0 0.0781,2.539062 l -0.0195,0.859375 q -3.51562,0 -5.03906,2.441407 l 0,23.808592 -4.02344,0 0,-29.296874 4.02344,0 0,3.261719 q 0.50781,-1.71875 1.77734,-2.65625 1.28907,-0.957031 3.20313,-0.957031 z"
         style="font-style:normal;font-variant:normal;font-weight:normal;font-stretch:ultra-condensed;font-size:medium;line-height:125%;font-family:Antonio;-inkscape-font-specification:'Antonio Ultra-Condensed';letter-spacing:0px;word-spacing:0px;fill:#000000;fill-opacity:1;stroke:none;stroke-width:1px;stroke-linecap:butt;stroke-linejoin:miter;stroke-opacity:1"
         id="path4335"
         inkscape:connector-curvature="0" />
    </g>
  </g>
</svg>
